<svg xmlns="http://www.w3.org/2000/svg" xmlns:xlink="http://www.w3.org/1999/xlink" version="1.1" id="Layer_1" x="0px" y="0px" viewBox="84.189 -119.055 1683.78 1607.2425" enable-background="new 0 0 1683.78 1190.55" xml:space="preserve" height="100px" width="100px">
<g>
	<g>
		<path d="M501.854,2.402c-147.235,0-267.018,119.442-267.018,266.268c0,146.823,119.783,266.266,267.018,266.266    c147.227,0,267.01-119.442,267.01-266.266C768.865,121.844,649.081,2.402,501.854,2.402z M501.854,464.698    c-108.401,0-196.586-87.931-196.586-196.029c0-108.099,88.185-196.031,196.586-196.031c108.393,0,196.578,87.932,196.578,196.031    C698.432,376.767,610.248,464.698,501.854,464.698z M501.854,656.23c-147.235,0-267.018,119.457-267.018,266.281    c0,146.81,119.783,266.254,267.018,266.254c147.227,0,267.01-119.444,267.01-266.254    C768.865,775.687,649.081,656.23,501.854,656.23z M501.854,1118.529c-108.401,0-196.586-87.934-196.586-196.018    c0-108.099,88.185-196.045,196.586-196.045c108.393,0,196.578,87.946,196.578,196.045    C698.432,1030.596,610.248,1118.529,501.854,1118.529z M592.391,193.356L485.373,300.699l-68.21-68.59    c-13.709-13.759-36.008-13.854-49.799-0.205c-13.812,13.662-13.908,35.899-0.207,49.673l93.18,93.694    c6.602,6.64,15.6,10.385,24.981,10.385h0.021c9.375,0,18.365-3.731,24.974-10.357l132.027-132.421    c13.715-13.76,13.647-35.996-0.143-49.659C628.405,179.529,606.113,179.597,592.391,193.356z M1183.082,534.935    c147.228,0,267.011-119.442,267.011-266.266c0-146.826-119.783-266.268-267.011-266.268    c-147.234,0-267.018,119.442-267.018,266.268C916.064,415.493,1035.849,534.935,1183.082,534.935z M1183.082,72.638    c108.393,0,196.579,87.932,196.579,196.031c0,108.098-88.186,196.029-196.579,196.029c-108.4,0-196.585-87.931-196.585-196.029    C986.497,160.571,1074.683,72.638,1183.082,72.638z M1183.082,656.23c-147.234,0-267.018,119.457-267.018,266.281    c0,146.81,119.785,266.254,267.018,266.254c147.228,0,267.011-119.444,267.011-266.254    C1450.094,775.687,1330.311,656.23,1183.082,656.23z M1183.082,1118.529c-108.4,0-196.585-87.934-196.585-196.018    c0-108.099,88.186-196.045,196.585-196.045c108.393,0,196.579,87.946,196.579,196.045    C1379.661,1030.596,1291.476,1118.529,1183.082,1118.529z M1273.621,845.581l-107.018,107.344l-68.211-68.59    c-13.708-13.759-36.006-13.855-49.799-0.207c-13.81,13.665-13.908,35.902-0.206,49.675l93.178,93.694    c6.604,6.64,15.601,10.385,24.982,10.385h0.02c9.376,0,18.366-3.732,24.975-10.359l132.027-132.419    c13.715-13.759,13.646-35.997-0.145-49.66C1309.635,831.753,1287.343,831.821,1273.621,845.581z"/>
	</g>
</g>
<text x="0.0" y="1398.89625" font-size="59.5275" font-weight="bold" font-family="Helvetica Neue, Helvetica, Arial-Unicode, Arial, Sans-serif" fill="#000000">Created by Sasha Tikhonov</text><text x="0.0" y="1458.42375" font-size="59.5275" font-weight="bold" font-family="Helvetica Neue, Helvetica, Arial-Unicode, Arial, Sans-serif" fill="#000000">from the Noun Project</text></svg>