<svg xmlns="http://www.w3.org/2000/svg" xmlns:xlink="http://www.w3.org/1999/xlink" version="1.1" id="Layer_1" x="0px" y="0px" viewBox="5.0 -10.01 100.0 135.135" enable-background="new 0 0 100 100.1" xml:space="preserve" height="100px" width="100px">
<path d="M88.4,93.6v-3h-3.5c0,0,1.3-46.6,0-63.1C83.6,10.8,48.5,3.2,48.5,3.2s-35.1,7.7-36.4,24.2c-1.3,16.6,0,63.1,0,63.1H8.7v3  H5.8v3.5h42.7h42.7v-3.5H88.4z M25.2,66.9c-2.8,0-5.1-2.3-5.1-5.1c0-2.8,2.3-5.1,5.1-5.1s5.1,2.3,5.1,5.1  C30.4,64.7,28.1,66.9,25.2,66.9z M63.4,68.2H32.6V57.5h30.8V68.2z M48.5,52.9c-8.8,0-15.9-7.1-15.9-15.9S39.7,21,48.5,21  c8.8,0,15.9,7.1,15.9,15.9S57.3,52.9,48.5,52.9z M71.3,66.9c-2.8,0-5.1-2.3-5.1-5.1c0-2.8,2.3-5.1,5.1-5.1s5.1,2.3,5.1,5.1  C76.4,64.7,74.1,66.9,71.3,66.9z"/>
<polygon points="36.2,36.3 36.2,37.6 36.2,44 37.9,44 37.9,37.6 37.9,36.3 37.9,29.9 36.2,29.9 "/>
<polygon points="39.1,36.3 39.1,37.6 39.1,46.5 40.7,46.5 40.7,37.6 40.7,36.3 40.7,27.4 39.1,27.4 "/>
<polygon points="42,36.3 42,37.6 42,47.8 43.6,47.8 43.6,37.6 43.6,36.3 43.6,26.1 42,26.1 "/>
<polygon points="44.8,36.3 44.8,37.6 44.8,49.1 46.5,49.1 46.5,37.6 46.5,36.3 46.5,24.8 44.8,24.8 "/>
<polygon points="47.7,36.3 47.7,37.6 47.7,50.4 49.3,50.4 49.3,37.6 49.3,36.3 49.3,23.6 47.7,23.6 "/>
<polygon points="50.6,36.3 50.6,37.6 50.6,49.1 52.2,49.1 52.2,37.6 52.2,36.3 52.2,24.8 50.6,24.8 "/>
<polygon points="53.5,36.3 53.5,37.6 53.5,47.8 55.1,47.8 55.1,37.6 55.1,36.3 55.1,26.1 53.5,26.1 "/>
<polygon points="56.3,36.3 56.3,37.6 56.3,46.5 58,46.5 58,37.6 58,36.3 58,27.4 56.3,27.4 "/>
<polygon points="59.2,29.9 59.2,36.3 59.2,37.6 59.2,44 60.8,44 60.8,37.6 60.8,36.3 60.8,29.9 "/>
<rect x="35.1" y="59" width="0.8" height="7.5"/>
<rect x="39.3" y="59" width="0.8" height="7.5"/>
<rect x="43.4" y="59" width="0.8" height="7.5"/>
<rect x="47.6" y="59" width="0.8" height="7.5"/>
<rect x="51.7" y="59" width="0.8" height="7.5"/>
<rect x="55.9" y="59" width="0.8" height="7.5"/>
<rect x="60" y="59" width="0.8" height="7.5"/>
<rect x="36.2" y="59" width="0.8" height="5.4"/>
<rect x="40.4" y="59" width="0.8" height="5.4"/>
<rect x="44.5" y="59" width="0.8" height="5.4"/>
<rect x="48.7" y="59" width="0.8" height="5.4"/>
<rect x="52.8" y="59" width="0.8" height="5.4"/>
<rect x="57" y="59" width="0.8" height="5.4"/>
<rect x="61.1" y="59" width="0.8" height="5.4"/>
<rect x="34.1" y="59" width="0.8" height="5.4"/>
<rect x="38.2" y="59" width="0.8" height="5.4"/>
<rect x="42.4" y="59" width="0.8" height="5.4"/>
<rect x="46.5" y="59" width="0.8" height="5.4"/>
<rect x="50.7" y="59" width="0.8" height="5.4"/>
<rect x="54.8" y="59" width="0.8" height="5.4"/>
<rect x="59" y="59" width="0.8" height="5.4"/>
<text x="0.0" y="117.6175" font-size="5.005" font-weight="bold" font-family="Helvetica Neue, Helvetica, Arial-Unicode, Arial, Sans-serif" fill="#000000">Created by Mike Wirth</text><text x="0.0" y="122.6225" font-size="5.005" font-weight="bold" font-family="Helvetica Neue, Helvetica, Arial-Unicode, Arial, Sans-serif" fill="#000000">from the Noun Project</text></svg>